<svg id="Calque_1" data-name="Calque 1" xmlns="http://www.w3.org/2000/svg" viewBox="0 0 143.33 141.98">
  <title>favicon</title>
  <rect x="1" y="1" width="141.33" height="139.98" rx="20" ry="20" style="fill: #f7f7f3;stroke: #516479;stroke-miterlimit: 10;stroke-width: 2px"/>
  <path d="M65.41,103.29l-7.47-2.17a1.47,1.47,0,0,1-1-1.82L73.66,41.68a1.47,1.47,0,0,1,1.83-1L83,42.84a1.47,1.47,0,0,1,1,1.83L67.24,102.29A1.47,1.47,0,0,1,65.41,103.29Zm-14-13.75,5.33-5.68a1.47,1.47,0,0,0-.09-2.11L45.57,72l11.11-9.76a1.46,1.46,0,0,0,.09-2.11l-5.33-5.69a1.47,1.47,0,0,0-2.08-.06L31.7,70.9a1.48,1.48,0,0,0,0,2.15L49.36,89.6a1.45,1.45,0,0,0,2.08-.06Zm40.1.08L109.2,73.06a1.46,1.46,0,0,0,0-2.14L91.54,54.35a1.48,1.48,0,0,0-2.08.06L84.13,60.1a1.46,1.46,0,0,0,.09,2.1L95.33,72,84.22,81.75a1.46,1.46,0,0,0-.09,2.11l5.33,5.68a1.47,1.47,0,0,0,2.08.08Z" transform="translate(-0.33 -0.84)" style="fill: #516479"/>
</svg>
